<svg width="21" height="12" viewBox="0 0 21 12" fill="none" xmlns="http://www.w3.org/2000/svg">
<path d="M1.35355 0.646447C1.15829 0.451184 0.841709 0.451184 0.646447 0.646447C0.451184 0.841709 0.451184 1.15829 0.646447 1.35355L1.35355 0.646447ZM7.5 7.5L7.14645 7.85355C7.34171 8.04882 7.65829 8.04882 7.85355 7.85355L7.5 7.5ZM12 3L12.3536 2.64645C12.1583 2.45118 11.8417 2.45118 11.6464 2.64645L12 3ZM21 12L19.5057 6.42322L15.4232 10.5057L21 12ZM0.646447 1.35355L7.14645 7.85355L7.85355 7.14645L1.35355 0.646447L0.646447 1.35355ZM7.85355 7.85355L12.3536 3.35355L11.6464 2.64645L7.14645 7.14645L7.85355 7.85355ZM11.6464 3.35355L17.4645 9.17157L18.1716 8.46447L12.3536 2.64645L11.6464 3.35355Z" fill="#0652DD"/>
</svg>
