
<svg width="7" height="8" viewBox="0 0 7 8" fill="none" xmlns="http://www.w3.org/2000/svg">
<path fill-rule="evenodd" clip-rule="evenodd" d="M0.751703 7.14527C0.559703 7.14527 0.367703 7.07227 0.221703 6.92527C-0.0712969 6.63227 -0.0712969 6.15827 0.221703 5.86527L5.0137 1.07327C5.3067 0.780266 5.7807 0.780266 6.0737 1.07327C6.3667 1.36627 6.3667 1.84027 6.0737 2.13327L1.2817 6.92527C1.1357 7.07227 0.943703 7.14527 0.751703 7.14527Z" fill="white"/>
<path fill-rule="evenodd" clip-rule="evenodd" d="M5.54575 7.14831C5.35375 7.14831 5.16175 7.07531 5.01575 6.92831L0.21975 2.13131C-0.07325 1.83831 -0.07325 1.36431 0.21975 1.07131C0.51375 0.778312 0.98775 0.778312 1.27975 1.07131L6.07575 5.86831C6.36875 6.16131 6.36875 6.63531 6.07575 6.92831C5.92975 7.07531 5.73675 7.14831 5.54575 7.14831Z" fill="white"/>
</svg>
