<svg width="12" height="14" viewBox="0 0 12 14" fill="none" xmlns="http://www.w3.org/2000/svg">
<path d="M7.67431 0H3.82569C3.64582 0 3.5 0.145818 3.5 0.325694C3.5 0.43459 3.55442 0.536283 3.64503 0.596687L4.5547 1.20313C4.8329 1.3886 5 1.70083 5 2.03518V5.15597C5 5.82583 4.35426 6.30628 3.71265 6.1138L0.690383 5.20712C0.346297 5.10389 0 5.36154 0 5.72078C0 5.89578 0.0853822 6.05977 0.228745 6.16012L4.57346 9.20142C4.84079 9.38855 4.99975 9.69302 5.00947 10.0192C5.04477 11.2029 5.2116 14 6 14C6.7884 14 6.95523 11.2029 6.99053 10.0192C7.00025 9.69302 7.15921 9.38855 7.42654 9.20142L11.7669 6.16317C11.913 6.0609 12 5.8938 12 5.71547C12 5.35514 11.6574 5.09344 11.3097 5.18825L7.76312 6.15551C7.12698 6.32901 6.5 5.85012 6.5 5.19075V2.03518C6.5 1.70083 6.6671 1.3886 6.9453 1.20313L7.85497 0.596687C7.94558 0.536283 8 0.43459 8 0.325694C8 0.145818 7.85418 0 7.67431 0Z" fill="#0652DD"/>
</svg>
